<svg xmlns="http://www.w3.org/2000/svg" width="1536" height="864" viewBox="0 0 1536 864">
  <defs>
    <filter id="soft" x="-20%" y="-20%" width="140%" height="140%"><feDropShadow dx="0" dy="18" stdDeviation="22" flood-color="#000" flood-opacity="0.28"/></filter>
    <filter id="glowCyan" x="-60%" y="-60%" width="220%" height="220%"><feGaussianBlur stdDeviation="10" result="b"/><feMerge><feMergeNode in="b"/><feMergeNode in="SourceGraphic"/></feMerge></filter>
    <linearGradient id="fade" x1="0" x2="1" y1="0" y2="1"><stop offset="0" stop-color="#fff" stop-opacity="0.10"/><stop offset="1" stop-color="#fff" stop-opacity="0"/></linearGradient>
    <pattern id="grid" width="48" height="48" patternUnits="userSpaceOnUse"><path d="M48 0H0v48" fill="none" stroke="#fff" stroke-opacity="0.045" stroke-width="1"/></pattern>
  </defs>
  <rect width="1536" height="864" fill="#0d0d0d"/>
  
    <rect width="1536" height="864" fill="#0d0d0d"/>
    <rect x="70" y="58" width="230" height="56" rx="8" fill="#777" opacity="0.78"/>
    <text x="84" y="99" fill="#0b0b0b" font-family="Arial Black, Inter, sans-serif" font-size="38" font-weight="900" letter-spacing="-2" text-anchor="start" opacity="1"><tspan x="84" dy="0">type</tspan></text>
    <rect x="178" y="67" width="5" height="42" fill="#0b0b0b"/>
    <text x="188" y="99" fill="#0b0b0b" font-family="Inter, Arial, sans-serif" font-size="38" font-weight="300" letter-spacing="-2" text-anchor="start" opacity="1"><tspan x="188" dy="0">line</tspan></text>
    <text x="338" y="94" fill="#00e5ef" font-family="Inter, Arial, sans-serif" font-size="20" font-weight="800" letter-spacing="0" text-anchor="start" opacity="1"><tspan x="338" dy="0">standard</tspan></text>
    <text x="432" y="94" fill="#454545" font-family="Inter, Arial, sans-serif" font-size="20" font-weight="800" letter-spacing="0" text-anchor="start" opacity="1"><tspan x="432" dy="0">zen</tspan></text>
    <rect x="286" y="190" width="960" height="2" fill="#1e1e1e"/>
    <text x="286" y="242" fill="#00e5ef" font-family="Inter, Arial, sans-serif" font-size="18" font-weight="800" letter-spacing="0" text-anchor="start" opacity="1"><tspan x="286" dy="0">share</tspan></text>
    <text x="368" y="242" fill="#777" font-family="Inter, Arial, sans-serif" font-size="18" font-weight="800" letter-spacing="0" text-anchor="start" opacity="1"><tspan x="368" dy="0">www.typeline.app/StepMeetingsDemocrats</tspan></text>
    <rect x="786" y="209" width="98" height="40" rx="5" fill="none" stroke="#00e5ef" stroke-width="2"/>
    <text x="829" y="235" fill="#a6fbff" font-family="Inter, Arial, sans-serif" font-size="17" font-weight="800" letter-spacing="0" text-anchor="middle" opacity="1"><tspan x="829" dy="0">copy</tspan></text>
    <rect x="285" y="298" width="4" height="64" fill="#00e5ef" opacity="0.45" filter="url(#glowCyan)"/>
    <text x="286" y="352" fill="#6e6e73" font-family="ui-monospace, Menlo, monospace" font-size="43" font-weight="400" letter-spacing="9" text-anchor="start" opacity="1"><tspan x="286" dy="0">oh pants a hub as cap is see mood i cost by paper ads</tspan></text>
    <text x="286" y="458" fill="#6e6e73" font-family="ui-monospace, Menlo, monospace" font-size="43" font-weight="400" letter-spacing="9" text-anchor="start" opacity="1"><tspan x="286" dy="0">bolt stem local a ill i wins or grade began avenue guide</tspan></text>
    <rect x="286" y="574" width="965" height="5" fill="#878787"/>
    <text x="286" y="614" fill="#828282" font-family="Inter, Arial, sans-serif" font-size="18" font-weight="800" letter-spacing="0" text-anchor="start" opacity="1"><tspan x="286" dy="0">0:30</tspan></text>
    <rect x="688" y="690" width="268" height="122" rx="20" fill="#0a0a0a" stroke="#1d1d1d"/>
    <text x="734" y="776" fill="#00e5ef" font-family="Inter, Arial, sans-serif" font-size="112" font-weight="300" letter-spacing="0" text-anchor="start" opacity="1"><tspan x="734" dy="0">58</tspan></text>
    <text x="892" y="776" fill="#e9e9e9" font-family="Inter, Arial, sans-serif" font-size="112" font-weight="300" letter-spacing="0" text-anchor="start" opacity="1"><tspan x="892" dy="0">93%</tspan></text>
    <path d="M372 756 C455 675 500 782 574 705 S714 744 780 683 879 738 940 694 1049 753 1116 713 1216 694 1285 752" fill="none" stroke="#00e5ef" stroke-width="8" opacity="0.72" filter="url(#glowCyan)"/>
    <rect x="360" y="673" width="32" height="38" rx="16" fill="#00e5ef" opacity="0.22"/><rect x="414" y="673" width="32" height="75" rx="16" fill="#00e5ef" opacity="0.31"/><rect x="468" y="673" width="32" height="112" rx="16" fill="#00e5ef" opacity="0.4"/><rect x="522" y="673" width="32" height="53" rx="16" fill="#00e5ef" opacity="0.49"/><rect x="576" y="673" width="32" height="90" rx="16" fill="#00e5ef" opacity="0.58"/><rect x="630" y="673" width="32" height="127" rx="16" fill="#00e5ef" opacity="0.22"/><rect x="684" y="673" width="32" height="68" rx="16" fill="#00e5ef" opacity="0.31"/><rect x="738" y="673" width="32" height="105" rx="16" fill="#00e5ef" opacity="0.4"/><rect x="792" y="673" width="32" height="46" rx="16" fill="#00e5ef" opacity="0.49"/><rect x="846" y="673" width="32" height="83" rx="16" fill="#00e5ef" opacity="0.58"/><rect x="900" y="673" width="32" height="120" rx="16" fill="#00e5ef" opacity="0.22"/><rect x="954" y="673" width="32" height="61" rx="16" fill="#00e5ef" opacity="0.31"/><rect x="1008" y="673" width="32" height="98" rx="16" fill="#00e5ef" opacity="0.4"/><rect x="1062" y="673" width="32" height="39" rx="16" fill="#00e5ef" opacity="0.49"/><rect x="1116" y="673" width="32" height="76" rx="16" fill="#00e5ef" opacity="0.58"/><rect x="1170" y="673" width="32" height="113" rx="16" fill="#00e5ef" opacity="0.22"/>
  
</svg>