<svg width="48" height="48" viewBox="0 0 48 48" fill="none" xmlns="http://www.w3.org/2000/svg">
<g opacity="0.54">
<path fill-rule="evenodd" clip-rule="evenodd" d="M24 0C10.7452 0 0 10.7452 0 24C0 37.2548 10.7452 48 24 48C37.2548 48 48 37.2548 48 24C48 10.7452 37.2548 0 24 0ZM34.336 18.6698H27.5566V16.7275H34.336V18.6698ZM33.7402 20.3003C32.9244 19.9395 32.0077 19.7583 30.9887 19.7583C29.2743 19.7583 27.8821 20.2943 26.8059 21.359C25.7327 22.4267 25.1953 23.9606 25.1953 25.9608C25.1953 28.0931 25.7884 29.6345 26.982 30.5804C28.1695 31.5278 29.5438 32 31.1016 32C32.9876 32 34.4552 31.4387 35.5028 30.3175C36.1741 29.6107 36.5534 28.9143 36.6362 28.2312H33.5129C33.3323 28.5698 33.1216 28.8341 32.8823 29.0257C32.4473 29.3776 31.8798 29.5543 31.1859 29.5543C30.5267 29.5543 29.9652 29.4088 29.4986 29.1192C28.728 28.6544 28.3246 27.8422 28.2734 26.6854H36.7972C36.8108 25.6891 36.7777 24.9228 36.6949 24.3942C36.5534 23.4899 36.2433 22.694 35.7602 22.0079C35.2303 21.2298 34.5575 20.6596 33.7402 20.3003ZM18.8421 16C20.7717 16.0282 22.1369 16.5821 22.9422 17.6631C23.4253 18.3269 23.6677 19.1198 23.6677 20.0449C23.6677 20.9968 23.4253 21.7645 22.9361 22.3436C22.6622 22.6673 22.2603 22.9643 21.729 23.2316C22.5358 23.5226 23.1439 23.9814 23.5578 24.6096C23.9672 25.2362 24.1734 25.9995 24.1734 26.8963C24.1734 27.8214 23.9386 28.6515 23.4675 29.3851C23.1695 29.8706 22.7962 30.2805 22.3476 30.6131C21.8434 30.9947 21.2488 31.2546 20.561 31.3971C19.8731 31.5382 19.1296 31.6065 18.3258 31.6065H11.1973V16H18.8421Z" fill="black"/>
<path fill-rule="evenodd" clip-rule="evenodd" d="M14.3525 18.71H17.7964C18.5535 18.71 19.1766 18.7916 19.6673 18.9535C20.2333 19.1881 20.5162 19.6677 20.5162 20.3968C20.5162 21.0502 20.301 21.5075 19.8735 21.7659C19.4431 22.0243 18.8846 22.1535 18.1998 22.1535H14.3525V18.71ZM29.1643 22.9078C29.5963 22.4683 30.2074 22.2485 30.9901 22.2485C31.7126 22.2485 32.3162 22.4549 32.8068 22.8692C33.2915 23.2865 33.5655 23.8923 33.6211 24.6942H28.3485C28.4599 23.9428 28.7323 23.3473 29.1643 22.9078ZM18.2488 24.7358H14.3534V28.898H18.1946C18.881 28.898 19.4168 28.806 19.7976 28.6233C20.4915 28.2818 20.8377 27.6344 20.8377 26.6751C20.8377 25.8614 20.5035 25.3045 19.8307 25.0001C19.4544 24.8308 18.9261 24.7417 18.2488 24.7358Z" fill="black"/>
</g>
</svg>
