<svg width="24" height="24" viewBox="0 0 24 24" fill="none" xmlns="http://www.w3.org/2000/svg">
<path d="M21.7641 6.26567V11.2744C21.7641 13.655 19.8258 15.5899 17.441 15.5899C15.0563 15.5899 13.118 13.655 13.118 11.2744V6.95889V4.72687V0H10.882V4.73068V6.36089C9.72591 5.34772 8.21494 4.73068 6.55898 4.73068C2.94181 4.73068 0 7.66735 0 11.2782C0 14.8891 2.94181 17.8257 6.55898 17.8257H7.67695V15.5937H6.55898C4.17424 15.5937 2.23593 13.6588 2.23593 11.2782C2.23593 8.89763 4.17424 6.9627 6.55898 6.9627C8.94372 6.9627 10.882 8.89763 10.882 11.2782V11.4001H10.8859C10.9507 14.9538 13.8658 17.8219 17.441 17.8219C19.097 17.8219 20.608 17.2087 21.7641 16.1955V17.4487C21.7641 19.8292 19.8258 21.7642 17.441 21.7642H16.3231V23.9962H17.441C21.0582 23.9962 24 21.0595 24 17.4487V6.26567H21.7641Z" fill="black"/>
</svg>
