<svg width="48" height="48" viewBox="0 0 48 48" fill="none" xmlns="http://www.w3.org/2000/svg">
<path opacity="0.54" fill-rule="evenodd" clip-rule="evenodd" d="M24 48C37.2548 48 48 37.2548 48 24C48 10.7452 37.2548 0 24 0C10.7452 0 0 10.7452 0 24C0 37.2548 10.7452 48 24 48ZM15.998 15.9986H31.998C33.098 15.9986 33.9981 16.8987 33.9981 17.9988V29.9998C33.9981 31.0998 33.098 31.9999 31.998 31.9999H15.998C14.898 31.9999 13.998 31.0998 13.998 29.9998V17.9988C13.998 16.8987 14.898 15.9986 15.998 15.9986ZM24 25.005L32 20.0046V18.0045L24 23.0049L16 18.0045V20.0046L24 25.005Z" fill="black"/>
</svg>
