<svg width="48" height="48" viewBox="0 0 48 48" fill="none" xmlns="http://www.w3.org/2000/svg">
<g opacity="1">
<path d="M24.0435 0.179688C10.8149 0.179688 0.0878906 11.0876 0.0878906 24.5442C0.0878906 35.3093 6.95189 44.4423 16.4702 47.6641C17.6674 47.8896 18.1069 47.1355 18.1069 46.492C18.1069 45.911 18.0847 43.9917 18.0744 41.9557C11.4099 43.4296 10.0037 39.081 10.0037 39.081C8.91394 36.2647 7.34383 35.5159 7.34383 35.5159C5.17034 34.0037 7.50766 34.0347 7.50766 34.0347C9.91321 34.2062 11.1799 36.5456 11.1799 36.5456C13.3165 40.2704 16.784 39.1936 18.151 38.571C18.366 36.9966 18.9868 35.921 19.6719 35.3129C14.351 34.6968 8.75764 32.6077 8.75764 23.2717C8.75764 20.6116 9.69345 18.4381 11.2259 16.7318C10.9771 16.1177 10.1572 13.64 11.4579 10.2839C11.4579 10.2839 13.4696 9.62903 18.0474 12.7814C19.9583 12.2415 22.0076 11.9708 24.0435 11.9615C26.0793 11.9708 28.1302 12.2415 30.0447 12.7814C34.617 9.62903 36.6258 10.2839 36.6258 10.2839C37.9297 13.64 37.1094 16.1177 36.8607 16.7318C38.3967 18.4381 39.3261 20.6116 39.3261 23.2717C39.3261 32.6298 33.722 34.6904 28.3877 35.2936C29.2469 36.0497 30.0125 37.5324 30.0125 39.8056C30.0125 43.0653 29.9848 45.6891 29.9848 46.492C29.9848 47.1404 30.416 47.9001 31.6302 47.6608C41.1434 44.4355 47.9986 35.3057 47.9986 24.5442C47.9986 11.0876 37.2732 0.179688 24.0435 0.179688Z" fill="black"/>
<path d="M9.16158 35.1621C9.10882 35.2835 8.92158 35.3194 8.751 35.2363C8.57725 35.1568 8.47966 34.9918 8.53599 34.8704C8.58756 34.7457 8.7752 34.7114 8.94856 34.7941C9.12271 34.874 9.22188 35.0406 9.16158 35.1621Z" fill="black"/>
<path d="M10.1308 36.2625C10.0166 36.3702 9.79322 36.3202 9.64168 36.1499C9.48499 35.9801 9.45563 35.7529 9.57146 35.6436C9.68928 35.5359 9.90588 35.5863 10.063 35.7561C10.2197 35.928 10.2502 36.1536 10.1308 36.2625Z" fill="black"/>
<path d="M11.076 37.6659C10.9292 37.7696 10.6892 37.6724 10.5408 37.4557C10.3941 37.2391 10.3941 36.9792 10.544 36.8751C10.6928 36.771 10.9292 36.8646 11.0796 37.0797C11.2259 37.2996 11.2259 37.5598 11.076 37.6659Z" fill="black"/>
<path d="M12.3702 39.0219C12.2389 39.1692 11.9593 39.1297 11.7546 38.9287C11.5451 38.7322 11.4868 38.4534 11.6185 38.3062C11.7514 38.1585 12.0327 38.2001 12.2389 38.3994C12.4468 38.5955 12.5103 38.8763 12.3702 39.0219Z" fill="black"/>
<path d="M14.1549 39.809C14.097 39.9999 13.8276 40.0866 13.5563 40.0055C13.2853 39.922 13.108 39.6985 13.1628 39.5056C13.2191 39.3136 13.4896 39.2232 13.763 39.3099C14.0335 39.393 14.2112 39.6149 14.1549 39.809Z" fill="black"/>
<path d="M16.1154 39.9547C16.1221 40.1557 15.892 40.3223 15.6072 40.3255C15.3208 40.3324 15.0891 40.1698 15.0859 39.9721C15.0859 39.7691 15.3109 39.6041 15.5973 39.5993C15.8821 39.5936 16.1154 39.755 16.1154 39.9547Z" fill="black"/>
<path d="M17.9398 39.6389C17.9739 39.835 17.776 40.0364 17.4931 40.0896C17.2151 40.1417 16.9576 40.0206 16.9223 39.8261C16.8878 39.6252 17.0893 39.4239 17.367 39.3718C17.6502 39.3218 17.9037 39.4396 17.9398 39.6389Z" fill="black"/>
</g>
</svg>
