<svg width="48" height="48" viewBox="0 0 48 48" fill="none" xmlns="http://www.w3.org/2000/svg">
<g opacity="0.54">
<path fill-rule="evenodd" clip-rule="evenodd" d="M24 0C10.7452 0 0 10.7452 0 24C0 37.2548 10.7452 48 24 48C37.2548 48 48 37.2548 48 24C48 10.7452 37.2548 0 24 0ZM11.5215 19.8778H16.9604V36.2195H11.5215V19.8778ZM17.3184 14.8227C17.2831 13.2204 16.1373 12 14.2767 12C12.4161 12 11.1997 13.2204 11.1997 14.8227C11.1997 16.3918 12.3801 17.6473 14.2061 17.6473H14.2409C16.1373 17.6473 17.3184 16.3918 17.3184 14.8227ZM30.3132 19.4941C33.8923 19.4941 36.5755 21.8302 36.5755 26.8497L36.5753 36.2195H31.1365V27.4767C31.1365 25.2807 30.3495 23.7822 28.3806 23.7822C26.878 23.7822 25.983 24.7924 25.5899 25.7681C25.4461 26.1178 25.4108 26.605 25.4108 27.0934V36.22H19.9712C19.9712 36.22 20.0429 21.4117 19.9712 19.8783H25.4108V22.1929C26.1326 21.0802 27.4255 19.4941 30.3132 19.4941Z" fill="black"/>
</g>
</svg>
