<svg width="48" height="48" viewBox="0 0 48 48" fill="none" xmlns="http://www.w3.org/2000/svg">
<g opacity="1">
<path fill-rule="evenodd" clip-rule="evenodd" d="M24 0C10.7452 0 0 10.7452 0 24C0 37.2548 10.7452 48 24 48C37.2548 48 48 37.2548 48 24C48 10.7452 37.2548 0 24 0ZM34.0013 15.7494C35.1028 16.0516 35.9703 16.9422 36.2647 18.0732C36.7997 20.1231 36.7997 24.4 36.7997 24.4C36.7997 24.4 36.7997 28.6768 36.2647 30.7268C35.9703 31.8578 35.1028 32.7484 34.0013 33.0508C32.0051 33.6 23.9997 33.6 23.9997 33.6C23.9997 33.6 15.9943 33.6 13.9979 33.0508C12.8964 32.7484 12.0289 31.8578 11.7345 30.7268C11.1997 28.6768 11.1997 24.4 11.1997 24.4C11.1997 24.4 11.1997 20.1231 11.7345 18.0732C12.0289 16.9422 12.8964 16.0516 13.9979 15.7494C15.9943 15.2 23.9997 15.2 23.9997 15.2C23.9997 15.2 32.0051 15.2 34.0013 15.7494Z" fill="black"/>
<path d="M21.6001 28.7998V20.7998L28.0001 24.8L21.6001 28.7998Z" fill="black"/>
</g>
</svg>
