<svg xmlns="http://www.w3.org/2000/svg" viewBox="0 0 900 900" role="img" aria-label="Context window routing diagram">
  <defs>
    <linearGradient id="bg" x1="0" y1="0" x2="1" y2="1"><stop offset="0" stop-color="#050505"/><stop offset="0.64" stop-color="#181818"/><stop offset="1" stop-color="#f7f7f7"/></linearGradient>
    <filter id="shadow" x="-20%" y="-20%" width="140%" height="140%"><feDropShadow dx="0" dy="18" stdDeviation="18" flood-color="#000" flood-opacity="0.35"/></filter>
    <style>.small{font:700 24px Roboto,Arial,sans-serif;letter-spacing:.13em}.label{font:700 32px Roboto,Arial,sans-serif}.mono{font:600 22px ui-monospace,SFMono-Regular,Menlo,monospace}</style>
  </defs>
  <rect width="900" height="900" fill="url(#bg)"/>
  <g opacity=".11" stroke="#fff"><path d="M0 180h900M0 360h900M0 540h900M0 720h900M180 0v900M360 0v900M540 0v900M720 0v900"/></g>
  <g filter="url(#shadow)">
    <rect x="190" y="150" width="520" height="600" rx="42" fill="#fff"/>
    <rect x="220" y="196" width="460" height="94" rx="24" fill="#050505"/>
    <text x="250" y="253" fill="#FFEF00" class="small">CONTEXT WINDOW</text>
    <rect x="250" y="330" width="166" height="70" rx="22" fill="#FFEF00"/>
    <rect x="440" y="330" width="210" height="70" rx="22" fill="#eeeeee"/>
    <rect x="250" y="426" width="260" height="70" rx="22" fill="#eeeeee"/>
    <rect x="535" y="426" width="115" height="70" rx="22" fill="#FFEF00"/>
    <rect x="250" y="522" width="178" height="70" rx="22" fill="#eeeeee"/>
    <rect x="454" y="522" width="196" height="70" rx="22" fill="#eeeeee"/>
    <text x="286" y="376" fill="#050505" class="mono">repo</text>
    <text x="470" y="376" fill="#050505" class="mono">memory</text>
    <text x="286" y="472" fill="#050505" class="mono">task plan</text>
    <text x="558" y="472" fill="#050505" class="mono">ci</text>
    <text x="286" y="568" fill="#050505" class="mono">diff</text>
    <text x="486" y="568" fill="#050505" class="mono">docs</text>
    <path d="M450 645c-94 0-170-76-170-170s76-170 170-170 170 76 170 170-76 170-170 170Z" fill="none" stroke="#050505" stroke-width="8" stroke-dasharray="16 18" opacity=".22"/>
  </g>
  <g fill="none" stroke="#FFEF00" stroke-width="12" stroke-linecap="round" stroke-linejoin="round">
    <path d="M103 452h82"><animate attributeName="d" values="M103 452h82;M118 452h67;M103 452h82" dur="4s" repeatCount="indefinite"/></path>
    <path d="M715 452h82"><animate attributeName="d" values="M715 452h82;M715 452h67;M715 452h82" dur="4s" repeatCount="indefinite"/></path>
    <path d="M450 92v58"/>
  </g>
  <text x="450" y="820" fill="#fff" text-anchor="middle" class="label">route the right context</text>
</svg>