<svg xmlns="http://www.w3.org/2000/svg" viewBox="0 0 1600 900" role="img" aria-label="Context is the Constraint abstract hero artwork">
  <defs>
    <linearGradient id="bg" x1="0" x2="1" y1="0" y2="1">
      <stop offset="0" stop-color="#050505"/>
      <stop offset="0.52" stop-color="#1a1a1a"/>
      <stop offset="1" stop-color="#ffffff"/>
    </linearGradient>
    <filter id="soft" x="-20%" y="-20%" width="140%" height="140%">
      <feGaussianBlur stdDeviation="18"/>
    </filter>
    <pattern id="grid" width="64" height="64" patternUnits="userSpaceOnUse">
      <path d="M 64 0 L 0 0 0 64" fill="none" stroke="#ffffff" stroke-opacity="0.08" stroke-width="1"/>
    </pattern>
  </defs>
  <rect width="1600" height="900" fill="url(#bg)"/>
  <rect width="1600" height="900" fill="url(#grid)"/>
  <g opacity="0.95">
    <path d="M-40 670 C 260 450, 430 760, 710 520 S 1070 230, 1640 330" fill="none" stroke="#FFEF00" stroke-width="26" stroke-linecap="round" opacity="0.9">
      <animate attributeName="stroke-dasharray" values="70 36;110 48;70 36" dur="9s" repeatCount="indefinite"/>
    </path>
    <path d="M-80 300 C 250 120, 460 360, 690 260 S 1020 55, 1680 170" fill="none" stroke="#ffffff" stroke-width="3" stroke-linecap="round" opacity="0.55"/>
  </g>
  <g transform="translate(150 138)">
    <rect x="0" y="0" width="104" height="104" rx="18" fill="#ffffff" fill-opacity="0.1" stroke="#ffffff" stroke-opacity="0.28"><animateTransform attributeName="transform" type="translate" values="0 0; 0 12; 0 0" dur="5s" repeatCount="indefinite"/></rect><rect x="138" y="46" width="104" height="104" rx="18" fill="#ffffff" fill-opacity="0.11800000000000001" stroke="#ffffff" stroke-opacity="0.28"><animateTransform attributeName="transform" type="translate" values="0 0; 0 -12; 0 0" dur="6s" repeatCount="indefinite"/></rect><rect x="276" y="92" width="104" height="104" rx="18" fill="#ffffff" fill-opacity="0.136" stroke="#ffffff" stroke-opacity="0.28"><animateTransform attributeName="transform" type="translate" values="0 0; 0 12; 0 0" dur="7s" repeatCount="indefinite"/></rect><rect x="414" y="0" width="104" height="104" rx="18" fill="#ffffff" fill-opacity="0.154" stroke="#ffffff" stroke-opacity="0.28"><animateTransform attributeName="transform" type="translate" values="0 0; 0 -12; 0 0" dur="8s" repeatCount="indefinite"/></rect><rect x="552" y="46" width="104" height="104" rx="18" fill="#ffffff" fill-opacity="0.172" stroke="#ffffff" stroke-opacity="0.28"><animateTransform attributeName="transform" type="translate" values="0 0; 0 12; 0 0" dur="5s" repeatCount="indefinite"/></rect><rect x="690" y="92" width="104" height="104" rx="18" fill="#ffffff" fill-opacity="0.19" stroke="#ffffff" stroke-opacity="0.28"><animateTransform attributeName="transform" type="translate" values="0 0; 0 -12; 0 0" dur="6s" repeatCount="indefinite"/></rect><rect x="828" y="0" width="104" height="104" rx="18" fill="#ffffff" fill-opacity="0.208" stroke="#ffffff" stroke-opacity="0.28"><animateTransform attributeName="transform" type="translate" values="0 0; 0 12; 0 0" dur="7s" repeatCount="indefinite"/></rect><rect x="966" y="46" width="104" height="104" rx="18" fill="#ffffff" fill-opacity="0.226" stroke="#ffffff" stroke-opacity="0.28"><animateTransform attributeName="transform" type="translate" values="0 0; 0 -12; 0 0" dur="8s" repeatCount="indefinite"/></rect><rect x="1104" y="92" width="104" height="104" rx="18" fill="#ffffff" fill-opacity="0.244" stroke="#ffffff" stroke-opacity="0.28"><animateTransform attributeName="transform" type="translate" values="0 0; 0 12; 0 0" dur="5s" repeatCount="indefinite"/></rect>
  </g>
  <g filter="url(#soft)" opacity="0.65">
    <circle cx="1025" cy="555" r="210" fill="#FFEF00" fill-opacity="0.55"/>
    <circle cx="1260" cy="300" r="130" fill="#ffffff" fill-opacity="0.28"/>
  </g>
  <g fill="none" stroke="#050505" stroke-opacity="0.58" stroke-width="2">
    <path d="M 240 790 L 380 650 L 520 735"/><path d="M 375 790 L 515 650 L 655 735"/><path d="M 510 790 L 650 650 L 790 735"/><path d="M 645 790 L 785 650 L 925 735"/><path d="M 780 790 L 920 650 L 1060 735"/><path d="M 915 790 L 1055 650 L 1195 735"/>
  </g>
  <g fill="#FFEF00" opacity="0.95">
    <circle cx="310" cy="690" r="13"/>
    <circle cx="710" cy="520" r="13"/>
    <circle cx="1090" cy="330" r="13"/>
    <circle cx="1330" cy="285" r="13"/>
  </g>
</svg>