<svg xmlns="http://www.w3.org/2000/svg" viewBox="0 0 900 900" role="img" aria-label="Three roles and three phases orchestration diagram">
  <defs>
    <linearGradient id="bg" x1="0" y1="0" x2="1" y2="1"><stop offset="0" stop-color="#f8f8f8"/><stop offset=".58" stop-color="#fff"/><stop offset="1" stop-color="#050505"/></linearGradient>
    <filter id="shadow" x="-20%" y="-20%" width="140%" height="140%"><feDropShadow dx="0" dy="16" stdDeviation="16" flood-color="#000" flood-opacity="0.22"/></filter>
    <style>.small{font:700 21px Roboto,Arial,sans-serif;letter-spacing:.12em}.label{font:700 31px Roboto,Arial,sans-serif}.body{font:700 26px Roboto,Arial,sans-serif}</style>
  </defs>
  <rect width="900" height="900" fill="url(#bg)"/>
  <g transform="translate(102 112)" filter="url(#shadow)">
    <rect x="0" y="0" width="696" height="676" rx="52" fill="#050505"/>
    <text x="348" y="78" fill="#FFEF00" text-anchor="middle" class="small">ORCHESTRATION MAP</text>
    <g transform="translate(88 140)">
      <circle cx="88" cy="88" r="86" fill="#FFEF00"/>
      <circle cx="260" cy="88" r="86" fill="#fff"/>
      <circle cx="432" cy="88" r="86" fill="#FFEF00"/>
      <text x="88" y="96" text-anchor="middle" fill="#050505" class="body">agent</text>
      <text x="260" y="96" text-anchor="middle" fill="#050505" class="body">harness</text>
      <text x="432" y="96" text-anchor="middle" fill="#050505" class="body">repo</text>
      <path d="M174 88h0 0 0 0h0 0 0 0 0 0 0 0 0 0 0 0 0 0h0 0 0 0" stroke="#fff" stroke-width="10" stroke-linecap="round" opacity=".65"/>
      <path d="M346 88h0 0 0 0h0 0 0 0 0 0 0 0 0 0 0 0 0 0h0 0 0 0" stroke="#fff" stroke-width="10" stroke-linecap="round" opacity=".65"/>
    </g>
    <g transform="translate(92 412)">
      <rect x="0" y="0" width="150" height="110" rx="26" fill="#fff"/>
      <rect x="192" y="0" width="150" height="110" rx="26" fill="#fff"/>
      <rect x="384" y="0" width="150" height="110" rx="26" fill="#fff"/>
      <path d="M150 55h42M342 55h42" stroke="#FFEF00" stroke-width="12" stroke-linecap="round"/>
      <text x="75" y="65" text-anchor="middle" fill="#050505" class="body">explore</text>
      <text x="267" y="65" text-anchor="middle" fill="#050505" class="body">climb</text>
      <text x="459" y="65" text-anchor="middle" fill="#050505" class="body">summit</text>
    </g>
    <text x="348" y="604" fill="#fff" text-anchor="middle" class="label">contracts over lock-in</text>
  </g>
</svg>