<svg xmlns="http://www.w3.org/2000/svg" viewBox="0 0 900 900" role="img" aria-label="Engineer workflow with plan code review hats">
  <defs>
    <linearGradient id="bg" x1="0" y1="0" x2="1" y2="1"><stop offset="0" stop-color="#050505"/><stop offset=".62" stop-color="#202020"/><stop offset="1" stop-color="#FFEF00"/></linearGradient>
    <filter id="shadow" x="-20%" y="-20%" width="140%" height="140%"><feDropShadow dx="0" dy="18" stdDeviation="20" flood-color="#000" flood-opacity="0.34"/></filter>
    <style>.small{font:700 21px Roboto,Arial,sans-serif;letter-spacing:.12em}.label{font:700 32px Roboto,Arial,sans-serif}.mono{font:700 24px ui-monospace,SFMono-Regular,Menlo,monospace}</style>
  </defs>
  <rect width="900" height="900" fill="url(#bg)"/>
  <g opacity=".1" stroke="#fff"><circle cx="450" cy="450" r="350"/><circle cx="450" cy="450" r="245"/><circle cx="450" cy="450" r="140"/></g>
  <g filter="url(#shadow)">
    <rect x="182" y="174" width="536" height="552" rx="46" fill="#fff"/>
    <rect x="230" y="230" width="440" height="86" rx="24" fill="#050505"/>
    <text x="450" y="284" fill="#FFEF00" text-anchor="middle" class="small">ONE ENGINEER, THREE MODES</text>
    <g transform="translate(244 378)">
      <path d="M20 80c38-78 126-78 164 0Z" fill="#FFEF00"/>
      <rect x="26" y="80" width="152" height="44" rx="18" fill="#050505"/>
      <path d="M206 80c38-78 126-78 164 0Z" fill="#eeeeee"/>
      <rect x="212" y="80" width="152" height="44" rx="18" fill="#050505"/>
      <path d="M392 80c38-78 126-78 164 0Z" fill="#FFEF00"/>
      <rect x="398" y="80" width="152" height="44" rx="18" fill="#050505"/>
      <text x="102" y="167" text-anchor="middle" fill="#050505" class="mono">plan</text>
      <text x="288" y="167" text-anchor="middle" fill="#050505" class="mono">code</text>
      <text x="474" y="167" text-anchor="middle" fill="#050505" class="mono">review</text>
    </g>
    <g transform="translate(282 610)" fill="none" stroke="#050505" stroke-width="8" stroke-linecap="round" stroke-linejoin="round">
      <path d="M0 0h90l38 42h128l38-42h90"/>
      <path d="M96 42h192"/>
    </g>
  </g>
  <text x="450" y="815" fill="#fff" text-anchor="middle" class="label">seams make the loop legible</text>
</svg>