<svg xmlns="http://www.w3.org/2000/svg" viewBox="0 0 3012 822" width="3012" height="822"><path fill="#000" stroke="none" fill-rule="evenodd" d="M 318 782 L 318 782 Q 230 782 168 737.5 Q 106 693 73 610 Q 40 527 40 412 L 40 412 Q 40 297 73 213.5 Q 106 130 168 85 Q 230 40 318 40 L 318 40 Q 428 40 496 113 Q 564 186 580 323 L 580 323 L 399 330 Q 392 265 371 229.5 Q 350 194 318 194 L 318 194 Q 273 194 248.5 250.5 Q 224 307 224 412 L 224 412 Q 224 516 248.5 572 Q 273 628 318 628 L 318 628 Q 347 628 369.5 591 Q 392 554 399 486 L 399 486 L 580 493 Q 564 632 496 707 Q 428 782 318 782 M 832 766 L 652 766 L 652 56 L 832 56 L 832 330 L 992 330 L 992 56 L 1172 56 L 1172 766 L 992 766 L 992 488 L 832 488 L 832 766 M 1404 766 L 1226 766 L 1406 56 L 1618 56 L 1798 766 L 1620 766 L 1593 649 L 1431 649 L 1404 766 M 1559 498 L 1512 290 L 1465 498 L 1559 498 M 2202 766 L 2022 766 L 2022 214 L 1852 214 L 1852 56 L 2372 56 L 2372 214 L 2202 214 L 2202 766 M 2784 544 L 2636 544 Q 2636 463 2653.5 414 Q 2671 365 2725 338 L 2725 338 Q 2770 315 2784 296.5 Q 2798 278 2798 248 L 2798 248 Q 2798 224 2782.5 205 Q 2767 186 2720 186 L 2720 186 Q 2675 186 2654.5 206.5 Q 2634 227 2628 272 L 2628 272 L 2452 264 Q 2458 199 2491 148.5 Q 2524 98 2582 69 Q 2640 40 2720 40 L 2720 40 Q 2803 40 2859 66.5 Q 2915 93 2943.5 139 Q 2972 185 2972 244 L 2972 244 Q 2972 309 2945.5 347.5 Q 2919 386 2860 418 L 2860 418 Q 2829 435 2812.5 452 Q 2796 469 2790 490.5 Q 2784 512 2784 544 L 2784 544 M 2804 766 L 2624 766 L 2624 596 L 2804 596 L 2804 766"/></svg>
