<svg xmlns="http://www.w3.org/2000/svg" viewBox="-80 -80 1660 1660" width="1500" height="1500">
  <path d="M 671.5 233.05 l 0 182.6 -1.45 -1.2 c -25.2 -20.6 -39.45 -30.65 -60.3 -42.55 -67.75 -38.75 -147.15 -55.95 -224.5 -48.6 -64.3 6.1 -123.9 27.1 -176.75 62.4 -61.7 41.15 -110.55 99.75 -139.55 167.45 -16.45 38.3 -26 77 -29.8 120.5 -1.05 12 -1.2 45.8 -0.25 57.35 1.95 24.2 5.2 44.35 10.65 66.15 21.35 85.3 71.75 160.65 142.7 213.5 55.5 41.35 120.8 66.65 190 73.6 14.85 1.5 24.65 1.75 64.15 1.75 l 40.1 0 0 -64.95 0 -64.95 -41.35 -0.25 c -45.7 -0.25 -48.45 -0.4 -67.4 -3.6 -105.25 -17.85 -188.45 -101.2 -205.95 -206.25 -6.8 -40.9 -3.6 -83.15 9.3 -121.75 16.3 -48.85 46.9 -91.1 88.75 -122.55 33.85 -25.4 75.45 -42.25 117.75 -47.7 24.95 -3.15 52.25 -2.55 76.9 1.75 85.35 14.95 158.05 74.4 190.15 155.55 10.5 26.5 16.2 53.4 16.7 78.8 0.15 6.85 0.45 12.4 0.65 12.4 0.2 0 0.5 5.9 0.65 13.1 1.55 70.2 24.25 141.2 64 200.65 23.85 35.65 54.35 67.75 89.25 93.95 53.05 39.85 117.55 65.6 183.6 73.25 17.6 2.05 22.9 2.3 45 2.3 22.9 0 29.35 -0.35 47 -2.55 15.9 -1.95 27.9 -4.1 42.75 -7.7 58.65 -14.05 113.05 -42.05 160.15 -82.3 l 2.15 -1.85 -0.2 45.2 c -0.2 48.75 -0.25 49.6 -3.1 67.4 -7.35 45.05 -26.1 85.9 -56 121.8 -6.45 7.75 -21.8 23.15 -29.75 29.85 -36.25 30.45 -78.95 49.95 -124.55 56.85 -16.5 2.5 -19.95 2.65 -62.3 2.9 l -40.15 0.25 0 65 0 65 44.15 -0.25 c 45.65 -0.2 47.9 -0.3 66.85 -2.6 42.65 -5.2 84.4 -17.8 123.5 -37.3 29 -14.5 53.7 -30.9 78.95 -52.4 8.6 -7.35 30.65 -29.2 38.2 -37.95 45.1 -51.85 74.6 -112.2 87.8 -179.6 2.75 -14 4.85 -30.45 6.1 -47.75 0.35 -5.25 0.6 -107.85 0.75 -341.9 l 0.2 -334.35 -65.25 0 -65.2 0 -0.2 155.35 c -0.15 170.9 0.1 157.9 -3.1 177.6 -7.45 45.8 -27 87.85 -57.65 123.8 -5.9 6.9 -21.65 22.5 -28.6 28.3 -60.6 50.6 -139.15 70.15 -216 53.65 -81 -17.4 -149.4 -75.2 -180.4 -152.45 -8.9 -22.15 -14.2 -43.9 -16.85 -69 -1.8 -16.65 -1.9 -36.75 -2.1 -360.15 l -0.15 -318.1 -65 0 -65 0 0 182.55 z" fill="none" stroke="currentColor" stroke-width="6"/>
</svg>
